<svg version="1" xmlns="http://www.w3.org/2000/svg" width="592" height="592" viewBox="0 0 444.000000 444.000000"><path d="M240.4 11.7c-5.5 6.5-17.2 20.1-26 30.3s-38 44.1-64.9 75.5c-26.9 31.3-55.7 64.8-64 74.4-8.2 9.5-15.4 17.9-15.9 18.6-.7.9 3.1 5.9 12.6 17l13.6 15.8-8.4 4.3c-16.6 8.6-43.2 27.6-55.9 40C16.4 302.3 6.7 317.2 2 332.8c-1.9 6.1-2.1 9-1.8 21.9.3 14.6.3 14.9 3.9 22.3 8.6 17.8 23.3 29.6 41.3 32.9 13.6 2.5 35.5.7 53.1-4.4 23.7-6.9 51.2-24.3 73-46.3 5.9-5.9 9.2-8.7 9.7-7.9.5.8.8.7.8-.4 0-.9.6-2.2 1.4-2.8 1-.9 7.8 6.5 33.7 36.8 17.8 20.9 32.9 38 33.4 38 .6 0 10.5-11.1 22-24.7 60.3-70.8 112.1-130.5 114.4-131.9 22.6-13.6 38.4-29.1 45.8-44.9 2.4-5.1 2.8-7.1 2.8-15.4 0-8.5-.3-10.1-2.9-15.1-1.5-3.1-5.1-8-8-10.7-5.3-5.3-20.7-15.2-23.6-15.2-.9 0-2-.4-2.5-.9-.6-.4-3.2-1.6-5.8-2.6-4.4-1.7-7.1-4.5-30.5-31.7-14.1-16.5-25.8-30.5-26-31.2-.3-1.5 17.4-10.1 29.9-14.4 12.7-4.5 27.2-7.4 38.7-7.8 14.5-.6 18.6 1.9 17.6 10.4-.5 3.5-4.9 12.5-9 18.1-1.6 2.3-2.2 4.1-1.8 5.5.8 2.7 4.4 6.6 6.1 6.6.7 0 2.2.5 3.2 1.1 4.6 2.9 12-2.6 17-12.7 9.5-19 8.2-32.2-3.7-38.7-7-3.8-7.8-3.4-4 1.9 3.1 4.3 3.3 5.2 3.3 12.3 0 8.7-2.1 15.9-7.1 24.1-4.9 8.2-7.1 10.2-9.4 9-3.6-2-3.5-5.3.5-10.9 7.3-10.1 9.4-19.8 5.3-24.6-3-3.5-12.5-6.6-22-7.2-29-2-80.9 18.4-94.4 37.1-2.1 2.9-2.9 5.4-3.2 9.5-.3 5.2-.1 5.9 3.2 9.7 6.2 7.2 14.2 10.7 61.6 26.9 33.8 11.6 46.4 19.5 53.2 33.2 2.8 5.8 3.2 7.7 3.2 14.2 0 12.9-5 22.5-18.9 36.5-18.1 18.3-44.7 33-78 43.1-16.3 4.9-26.8 6.6-45.5 7.2-18.5.6-27.4-.7-36.7-5.3-6.5-3.2-10.4-6.9-13.4-13.1-3.3-6.7-3.3-18.8.1-29.2 2.8-8.8 11.5-22.4 18.9-29.6 2.8-2.7 5.1-5.5 5.1-6.2 0-1.8-19.3-1.8-20.7 0-.5.6-2.4 7-4.2 14.2-15.7 62.7-44.9 114.6-82 145.7-29.6 24.8-57.2 37.3-87.6 39.7-11.3.9-28.7-.2-30.8-1.9-.7-.5-4.1-3.1-7.7-5.7-8.1-6-15.6-16.8-19-27.3-5-15-2.7-33.7 6.1-51.1 6.3-12.5 21.2-29.5 36.4-41.4 14.7-11.5 35.8-24.9 48.8-30.9 7-3.3 12.7-6.5 12.7-7.1 0-.7-.7-3.2-1.5-5.5-2.8-7.9-1.5-23 3-36.5.9-2.8 3.7-9.1 6.2-14.1 16.5-33.5 63.5-72.6 110.2-91.4 8.8-3.6 11.9-5.3 12.8-7.2 3.1-6.1 7.7-6.1 12.1.1 2.1 3.1 3.5 4 6.7 4.5 7.3 1.2 13.5 3.7 16.9 7 3.8 3.5 6 10 5 14.3-1.8 7.5-9 17.3-12.6 17.3-2.3 0-2.3-2.2.2-9.3 4-11.4 1.9-18.6-6.1-20.7-6.5-1.8-7.5-.9-8.3 6.8-.8 7.2-6.8 43.8-11.6 69.7-1.7 8.8-3.1 17-3.2 18.2-.3 2.2 0 2.3 9.5 2.6 8.1.3 10.3.8 12.7 2.5l2.9 2.2 8.1-5.5c15.9-10.8 28.5-15.5 41.8-15.5 6.5 0 7.6.3 9.9 2.6 2.3 2.3 2.5 3 1.9 7.7-1 7.8-5.9 17-13.4 24.9-11.5 12.2-31.7 25.7-34.4 23-1.4-1.4.9-4.2 7.2-8.5 2.5-1.7 6.9-5.1 9.8-7.6 8.4-7.1 18.2-21.9 18.2-27.6 0-2.3-.3-2.5-5.1-2.5-15.8 0-38.2 12-54.3 29-10 10.7-14.7 20-15.4 30.4-.4 6.8-.2 7.9 2.2 12 5.4 9.3 16 12.6 40.6 12.6 17.5 0 29.7-1.6 47.8-6.1 36.7-9.1 66.4-24 77.9-39.1 5.8-7.6 7.5-11.4 8.1-18.3.6-7.8-1.7-13.3-8.5-20.6-10.2-11-24.8-18.5-59.1-30-33.1-11.2-44.4-17.9-49.2-29.1-1.8-4.3-2.2-6.5-1.8-12.3.7-10.1 4.3-17.3 13.4-26.1 17.1-16.8 56.5-30.8 89.9-32.1 12.5-.4 17.9.3 24.9 3.2 3.1 1.4 1.4-1.8-1.9-3.4-5-2.4-18.5-3.2-33.1-1.8-17 1.5-41.5 8.6-57.4 16.5-5.2 2.6-9.8 4.8-10.1 5-.5.2-23.7-26.4-57.2-65.8-5.5-6.3-10.7-12.3-11.6-13.3-1.6-1.7-2.2-1.2-11.7 10z"/><path d="M228.5 99.9c-26.5 10.3-47.2 23.8-67 43.6-13.7 13.7-22.5 26-31.4 44-9 18.1-11.6 26.4-11.6 37.7 0 4.7.3 8.9.7 9.3.4.4 2.9-.3 5.5-1.5 6.2-2.9 39.4-15.9 50.1-19.5 7.3-2.5 8.7-3.5 13-8.4 24.9-28.8 46.7-73.5 49.8-102.4.8-6.7.9-6.7-9.1-2.8zM224.1 165.3c-4.7 8.6-15.6 26-20.8 33.2-2.4 3.3-4 6.1-3.6 6.2 1 .4 21.2-5.3 22-6.1.3-.3 1.9-8.1 3.4-17.3 1.6-9.2 3.1-18 3.4-19.5 1.1-4.6-.8-3.2-4.4 3.5zM202.7 213.1L188 218l-8.4 8.3c-19.5 19.5-38.3 29.2-53 27.2-5.1-.6-11.1-3.6-11.8-5.7-1.2-3.4-39.2 17.8-57.7 32-11.3 8.7-24.5 22.2-31 31.7-20.4 29.5-17.8 65.3 5.6 77 3.2 1.6 7 3.8 8.5 4.9 2.5 1.7 3.9 1.9 15 1.3 32.1-1.5 63.7-13 85.4-31.1 13.9-11.6 27.5-26.3 35-37.7 12.5-18.9 25.1-46.7 33-72.7 4.8-15.9 11.5-43.2 10.8-44.3-.7-1.2.2-1.4-16.7 4.2zm-62.7 82c30.1 35 30.1 35.1 28.5 37.5-3.1 4.7-26 27-33.5 32.6-7.4 5.5-23.2 14-33.3 17.8-13.9 5.4-34.4 9.1-50.3 9.1-8.5.1-9.7-.2-12.1-2.3-11.6-10.2-14.4-15.9-15.1-31.4-.9-20.2 6.9-38 24.8-56.8 7.5-7.9 23.9-20.8 36-28.4 7-4.4 23.1-13.2 24.2-13.2.3 0 14.2 15.8 30.8 35.1z"/><path d="M150 231.1c-6.9 2.8-14.5 5.8-17 6.7-2.5 1-4.5 2.4-4.5 3.2 0 2 8.2 1.5 15.4-1.1 6.1-2.1 18-9 20.6-11.9 1.7-1.9 1.7-2-.1-1.9-1 .1-7.5 2.3-14.4 5zM223 435.1c-14 .9-20.2 1.9-20.7 3.6-1.3 3.9 46.5 6.3 76.2 3.9 19.7-1.7 23.5-2.3 23.5-3.7 0-3.9-43.9-6-79-3.8z"/></svg>